<svg width="10" height="10" viewBox="0 0 10 10" fill="none" xmlns="http://www.w3.org/2000/svg">
<g clip-path="url(#clip0_274_1089)">
<path d="M7.98987 0.901997C7.96692 0.788968 7.9056 0.687349 7.8163 0.614359C7.727 0.541369 7.61521 0.501495 7.49987 0.501495C7.38454 0.501495 7.27275 0.541369 7.18345 0.614359C7.09415 0.687349 7.03283 0.788968 7.00987 0.901997L6.88987 1.498C6.87058 1.59481 6.82306 1.68375 6.7533 1.75359C6.68354 1.82344 6.59466 1.87108 6.49787 1.8905L5.90187 2.0095C5.7883 2.03196 5.68604 2.09313 5.61255 2.18259C5.53905 2.27204 5.49888 2.38422 5.49888 2.5C5.49888 2.61577 5.53905 2.72795 5.61255 2.81741C5.68604 2.90686 5.7883 2.96804 5.90187 2.9905L6.49787 3.1095C6.59475 3.12883 6.68374 3.17642 6.75359 3.24628C6.82345 3.31613 6.87104 3.40512 6.89037 3.502L7.00937 4.098C7.03183 4.21157 7.09301 4.31383 7.18246 4.38732C7.27192 4.46082 7.3841 4.50099 7.49987 4.50099C7.61565 4.50099 7.72783 4.46082 7.81728 4.38732C7.90674 4.31383 7.96791 4.21157 7.99037 4.098L8.10937 3.502C8.1287 3.40512 8.1763 3.31613 8.24616 3.24628C8.31601 3.17642 8.40499 3.12883 8.50187 3.1095L9.09787 2.9905C9.21145 2.96804 9.31371 2.90686 9.3872 2.81741C9.4607 2.72795 9.50087 2.61577 9.50087 2.5C9.50087 2.38422 9.4607 2.27204 9.3872 2.18259C9.31371 2.09313 9.21145 2.03196 9.09787 2.0095L8.50187 1.8905C8.40499 1.87117 8.31601 1.82357 8.24616 1.75372C8.1763 1.68386 8.1287 1.59488 8.10937 1.498L7.99037 0.901997H7.98987ZM3.47437 2.842C3.44126 2.74233 3.3776 2.65561 3.29243 2.59416C3.20726 2.53271 3.1049 2.49963 2.99987 2.49963C2.89485 2.49963 2.79249 2.53271 2.70732 2.59416C2.62214 2.65561 2.55849 2.74233 2.52537 2.842L2.18387 3.8675C2.15934 3.94122 2.11796 4.0082 2.06302 4.06314C2.00808 4.11808 1.94109 4.15946 1.86737 4.184L0.841874 4.5255C0.742203 4.55861 0.65549 4.62227 0.594037 4.70744C0.532584 4.79261 0.499512 4.89497 0.499512 5C0.499512 5.10502 0.532584 5.20738 0.594037 5.29256C0.65549 5.37773 0.742203 5.44138 0.841874 5.4745L1.86737 5.8165C1.94104 5.84098 2.00799 5.88229 2.06293 5.93714C2.11786 5.99198 2.15927 6.05887 2.18387 6.1325L2.52537 7.158C2.55849 7.25767 2.62214 7.34438 2.70732 7.40583C2.79249 7.46729 2.89485 7.50036 2.99987 7.50036C3.1049 7.50036 3.20726 7.46729 3.29243 7.40583C3.3776 7.34438 3.44126 7.25767 3.47437 7.158L3.81587 6.1325C3.84041 6.05878 3.88179 5.99179 3.93673 5.93685C3.99167 5.88191 4.05866 5.84053 4.13237 5.816L5.15787 5.4745C5.25754 5.44138 5.34426 5.37773 5.40571 5.29256C5.46716 5.20738 5.50024 5.10502 5.50024 5C5.50024 4.89497 5.46716 4.79261 5.40571 4.70744C5.34426 4.62227 5.25754 4.55861 5.15787 4.5255L4.13237 4.184C4.05866 4.15946 3.99167 4.11808 3.93673 4.06314C3.88179 4.0082 3.84041 3.94122 3.81587 3.8675L3.47487 2.842H3.47437ZM6.97437 6.842C6.94126 6.74233 6.8776 6.65561 6.79243 6.59416C6.70726 6.53271 6.6049 6.49963 6.49987 6.49963C6.39485 6.49963 6.29249 6.53271 6.20731 6.59416C6.12214 6.65561 6.05849 6.74233 6.02537 6.842L5.93337 7.1175C5.90889 7.19116 5.86758 7.25811 5.81273 7.31305C5.75789 7.36798 5.691 7.40939 5.61737 7.434L5.34187 7.5255C5.2422 7.55861 5.15549 7.62227 5.09404 7.70744C5.03258 7.79261 4.99951 7.89497 4.99951 8C4.99951 8.10502 5.03258 8.20738 5.09404 8.29256C5.15549 8.37773 5.2422 8.44138 5.34187 8.4745L5.61737 8.566C5.69109 8.59053 5.75808 8.63191 5.81302 8.68685C5.86796 8.74179 5.90934 8.80878 5.93387 8.8825L6.02537 9.158C6.05849 9.25767 6.12214 9.34438 6.20731 9.40583C6.29249 9.46729 6.39485 9.50036 6.49987 9.50036C6.6049 9.50036 6.70726 9.46729 6.79243 9.40583C6.8776 9.34438 6.94126 9.25767 6.97437 9.158L7.06637 8.8825C7.09086 8.80883 7.13216 8.74188 7.18701 8.68694C7.24186 8.63201 7.30875 8.5906 7.38237 8.566L7.65787 8.4745C7.75754 8.44138 7.84426 8.37773 7.90571 8.29256C7.96716 8.20738 8.00024 8.10502 8.00024 8C8.00024 7.89497 7.96716 7.79261 7.90571 7.70744C7.84426 7.62227 7.75754 7.55861 7.65787 7.5255L7.38237 7.4335C7.30871 7.40901 7.24176 7.36771 7.18682 7.31286C7.13189 7.25801 7.09048 7.19112 7.06587 7.1175L6.97437 6.842Z" fill="#334155"/>
</g>
<defs>
<clipPath id="clip0_274_1089">
<rect width="10" height="10" fill="white"/>
</clipPath>
</defs>
</svg>
